<svg id="Layer_1" data-name="Layer 1" xmlns="http://www.w3.org/2000/svg" width="16.83in" height="2.23in" viewBox="0 0 1211.41 160.52"><path d="M143 49h-7.52V38.73h27c9.92 0 15.14.4 19.65 3.31 3.71 2.41 7.32 6.82 7.32 14.14C189.37 67.51 180.15 72 175 72v.2c9.73 0 18.55 5.92 18.55 17.35 0 9.22-7 19.35-26.37 19.35H136V98.69h7zm14.64 18.45h6.81c6 0 10.93-3.31 10.93-9.63 0-5.91-3.81-8.82-10.73-8.82h-7zm0 31.28h7.92c8.52 0 12.23-4.61 12.23-10.23 0-5.41-4.21-9.62-11.63-9.62h-8.52zm78.15-11.87h12l-.8 22.06h-50.4V98.69h6.31V49h-7.52V38.73h51.34l.6 20.66h-12L234.69 49h-17.15v18.41h17.65v10.83h-17.65v20.45H235zm18.84 11.86h6.5v-49.6h-8.9V38.91h20.3L302 76c3.1 3.9 5 6.7 5.9 9.4h.2V49.12h-6.4V38.91H327v10.21h-6.9v59.8h-10.8L276 67.12a18.26 18.26 0 0 1-3.3-5.4h-.2v37h6.8v10.2h-24.7zm128.7-49.6h-12.6v49.6H377v10.2h-27.2v-10.2h6.3v-49.6h-12.6l-.6 9.6h-12l.6-19.81h63.8l.6 19.81h-12zm56.59 37.1H452l-1 22.7h-50v-10.2h6.3v-49.6H401V38.91h27.2v10.21h-6.3v49.6h17.2zm55.8.7h12l-.8 22h-50.3v-10.2h6.3v-49.6h-7.5V38.91h51.2l.6 20.61h-12l-.6-10.4h-17.1v18.4h17.6v10.8h-17.6v20.4h17.4zm62.7-48.01h25.4v10.21h-5.5L555.12 81v17.7h6.3v10.2h-27.11V98.72h6.2v-17.6l-23.3-32h-5.5V38.91h27.8v10.21h-5.6a38.37 38.37 0 0 1 3.7 4.5l11.6 17 12.51-17.1a48 48 0 0 1 3.7-4.4h-7zm77.99 6.3h-7.5c-.1 9.81-.2 19.51-.2 35.91 0 8.7.6 13.6 3.5 17.2s7.9 5 15.1 5c7 0 12.4-1.7 15.6-5.9 2.9-3.8 3-9.8 3.1-19.3l.2-32.91h-8.7v-6.3h24.2v6.3H674l-.2 37.91c0 8-.9 13.8-5.5 19.4-4 4.9-11.4 7.6-21.3 7.6-12.2 0-18.9-3.1-23-8.7-3.3-4.5-3.9-9.4-3.9-21.1 0-11.4.09-24.4.2-35.11h-8.1v-6.3h24.21zm59.59 0h-9.3v-6.3h16.7l38.1 51.21a56.88 56.88 0 0 1 3.3 5.2h.2l.41-50.11h-8.71v-6.3h23.61v6.3h-7.5l-.4 63.71h-7.11l-39.6-52.6a39.92 39.92 0 0 1-2.7-4.4h-.2l-.4 50.7h8.8v6.3H688v-6.3h7.6zm78.7 0h-8v-6.3h24.2v6.3h-7.6l-.4 57.41h8v6.3h-24.2v-6.3h7.6zm26.39 0h-6.6v-6.3h24.2v6.3h-7.8l19 52.31c.5 1.3.69 2.5 1.09 3.8h.21c.4-1.3.59-2.5 1.09-3.8l18.82-52.31h-8.4v-6.3h23.6v6.3h-6.6L835 108.92h-9.2zm76.5 0h-8v-6.3h47.3v16.21h-7.4v-9.91h-23.3L886 69.82h22v6.3h-22l-.2 26.5h24.3l.6-10.9h7.4l-.6 17.2h-47.9v-6.3h7.6zm48.49-6.3h23.41c12.6 0 25.7 1.9 25.7 18 0 11.6-8.1 18-16.4 18.9V76c2.5.1 5.7 2.2 9 7.9l5.9 10.2c4.4 7.3 5 8.5 9.1 8.5h3.1v6.3h-4.1c-7.2 0-9.3-.8-13.1-6.7L962 90.72c-6.2-10.6-7.8-12.8-14-12.8h-5.5l-.21 24.7h8.11v6.3h-24.32v-6.3h7.61l.39-57.41h-8zm16.41 32.71h8.3c8.9 0 15.8-3.9 15.8-13.9 0-10.21-7.3-12.51-16.5-12.51h-7.4zm49.19 19.6h8.2v9.5c3.2 1.9 9.3 2.6 13.7 2.6 10 0 16.6-4.6 16.6-13 0-18.7-38.4-7.6-38.4-32.7 0-8.5 5-19.91 25.9-19.91 5.1 0 14.4 1.3 18.8 3.3v14.11h-7.8v-8.71c-2.6-1.1-8.4-1.9-11.7-1.9-7.5 0-16 2.9-16 12.11 0 17.8 38.4 6.7 38.4 32.5 0 15.4-13.2 21-26.7 21-11.5 0-17.1-2.7-21-3.5zm64.1-46.01h-8v-6.3H1072v6.3h-7.6l-.4 57.41h8v6.3h-24.2v-6.3h7.6zm48.69 0h-19.1l-.6 10.81h-7.4l.6-17.11h61.61l.6 17.11h-7.4l-.6-10.81h-19.11l-.39 57.41h8.7v6.3h-24.91v-6.3h7.6zm37.3-6.3H1166v6.3h-7.3a21.58 21.58 0 0 1 2.4 2.8l17.3 24 16.9-23.61a27.74 27.74 0 0 1 2.7-3.2h-8.6v-6.3h23v6.3h-6.4l-23.9 33.51-.3 23.9h7.9v6.3h-23.8v-6.3h7.3l.3-23.8-24.5-33.6h-7.2zM51.88 160.34c-1.55-.8-15.41-8-24.14-14.29a89.81 89.81 0 0 1-18-16.69C3.92 121.92 1 114.41 1 107V12.48l5-1.89a151.71 151.71 0 0 1 49.29-8.95c19 0 38.63 4.93 49.68 9.15l5 1.89V107c0 7.38-3 14.88-8.77 22.31a90.29 90.29 0 0 1-18 16.68c-9 6.47-23.62 14.06-24.24 14.38l-3.53 1.83z" transform="translate(-.97 -1.64)" fill="#0083ca"/><path d="M55.42 157.82l1.76-.92c.61-.31 15-7.79 23.74-14.07a86.49 86.49 0 0 0 17.21-15.94c5.28-6.73 8-13.44 8-19.93V15.34l-2.48-.95c-10.8-4.1-29.9-8.89-48.36-8.89a147.4 147.4 0 0 0-48 8.7l-2.5.94V107c0 6.49 2.68 13.2 8 19.94A85.61 85.61 0 0 0 30 142.92c8.69 6.28 23 13.68 23.65 14z" transform="translate(-.97 -1.64)" fill="#fff"/><path d="M55.29 25.17a142.67 142.67 0 0 0-46.61 8.45V107c0 5.61 2.4 11.52 7.13 17.56a81.78 81.78 0 0 0 16.45 15.19c8.55 6.19 23.15 13.69 23.15 13.69s14.68-7.59 23.24-13.77a82.3 82.3 0 0 0 16.44-15.2c4.74-6 7.13-11.94 7.13-17.55V33.81a142.51 142.51 0 0 0-46.93-8.64z" transform="translate(-.97 -1.64)" fill="#0083ca"/><path fill="#fff" d="M32.09 102.21h44.95v4.48H32.09z"/><path d="M9.77 19l-1.18.42v-1.68c1.69-.61 2.53-.9 4.24-1.45s2.4-.69 3.11-.43a1.85 1.85 0 0 1 1.17 1.94 3.56 3.56 0 0 1-2.28 3.2c1.54-.47 3 .08 3 1.93 0 1.49-1.13 3.41-4.19 4.38-2 .63-3 1-4.91 1.66v-1.58L9.77 27zm2.3 2.2l1.08-.35a2.3 2.3 0 0 0 1.73-2.1c0-.95-.61-1.24-1.7-.89l-1.11.36zm0 5l1.25-.4a2.43 2.43 0 0 0 1.94-2.26c0-.87-.67-1.35-1.84-1l-1.35.46zM28.31 20c.78-.16 1.17-.24 1.94-.38-.05 1.44-.07 2.15-.13 3.59-3.26.61-4.89 1-8.12 1.77v-1.63l1-.25v-8l-1.21.3v-1.69c3.3-.82 4.95-1.18 8.28-1.8l.09 3.32-1.94.37-.1-1.66c-1.11.22-1.66.34-2.77.58v3c1.14-.25 1.71-.37 2.85-.6v1.75c-1.14.23-1.71.35-2.85.6v3.31c1.13-.25 1.69-.37 2.82-.6zm6.69.8l1.06-.16v-8l-1.45.21v-1.68c1.33-.2 2-.3 3.32-.47 1.92 2.16 2.89 3.25 4.82 5.47a4.87 4.87 0 0 1 1 1.44v-5.88l-1.05.09v-1.65c1.66-.16 2.49-.22 4.16-.33v1.65l-1.14.08v9.69l-1.77.14c-2.18-2.53-3.28-3.77-5.45-6.2a2.45 2.45 0 0 1-.54-.81v6l1.04-.14v1.65c-1.62.2-2.43.31-4 .55zm24.51-9.52h-2.07v8h1.16v1.68c-1.79 0-3-.05-4.74 0v-1.71H55v-8h-2.07l-.1 1.56h-2L51 9.64c4.19-.14 6.3-.13 10.49.06l.1 3.21c-.79 0-1.18-.05-2-.07zm12.75 6.98c.79.09 1.19.14 2 .25-.07 1.46-.1 2.2-.16 3.66-3.27-.45-4.91-.62-8.19-.87v-1.65l1 .08v-8l-1-.09V10c1.78.14 2.68.22 4.46.41V12l-1-.1v8l2.81.31zm12.65 2.26l1.93.44c0 1.41-.07 2.12-.13 3.53-3.24-.75-4.87-1.07-8.15-1.63v-1.65l1 .18v-8l-1.22-.21v-1.69c3.33.56 5 .89 8.3 1.65l.09 3.36c-.77-.18-1.16-.27-1.93-.43l-.1-1.71c-1.11-.24-1.66-.35-2.77-.57v3c1.14.23 1.71.34 2.85.59v1.75c-1.14-.25-1.71-.36-2.85-.59v3.31c1.13.22 1.69.33 2.82.58zm13.35-4.15c1.61.52 2.41.79 4 1.37v1.65l-.86-.31c-1.46 1.56-2.19 2.34-3.66 3.94v2.86l1 .33v1.65C97 27.3 96 27 94.31 26.48v-1.65l1.11.33v-2.85a861.92 861.92 0 0 0-3.72-6.25l-.88-.24v-1.65c1.78.47 2.94.79 4.71 1.32v1.62a11 11 0 0 0-1.36-.38c.22.31 1.89 3 2.63 4.3l2-2.13a5.09 5.09 0 0 1 .59-.52L98.26 18z" transform="translate(-.97 -1.64)" fill="#0083ca"/><path d="M41.51 131.38h-7.69v-2.69h2.69v-6.24a30.35 30.35 0 0 1-2.85 1.38l-.81-1.73 4.6-3.4h2.13v10h1.93zm23.81 0h-7.68v-2.69h2.69v-6.24a30.35 30.35 0 0 1-2.85 1.38l-.81-1.73 4.59-3.4h2.14v10h1.92zm12.79-10.74l-5.38 10.77a18.58 18.58 0 0 1-1.55 2.6h-3.46a27 27 0 0 0 1.71-2.75l4.65-8.79a5.93 5.93 0 0 1 .92-1.27h-7.67v-2.49h10.78zm-29.18-2.28a5.13 5.13 0 0 0-5.34 5.17c0 3 1.72 5 4.79 5a4 4 0 0 0 3.06-1.35c-.42 3.13-2.44 4.51-5.71 4.51-.37 0-1-.05-1.43-.1l-.18 2.2a10.32 10.32 0 0 0 2.32.22c4.74 0 8.38-2.89 8.38-8.62.04-4.08-1.96-7.03-5.89-7.03zm2.63 6.72a3 3 0 0 1-2.19.87 2.46 2.46 0 0 1-2.65-2.64 2.18 2.18 0 0 1 2.28-2.49c1.69 0 2.57 1.64 2.57 3.64a6 6 0 0 1-.01.62zM33.05 93.61v-8.07h5.38V47.12h-5.76v-8.06h20.9c7.73 0 11.78.31 15.29 2.57a12.47 12.47 0 0 1 5.7 11 11.82 11.82 0 0 1-11.16 12.3v.15c7.57 0 14.44 4.6 14.44 13.49 0 7.17-5.47 15-20.52 15zm23.5-23.44H50v15.37h6.13c6.6 0 9.47-3.57 9.47-7.92-.04-4.19-3.3-7.45-9.05-7.45zm7.08-16.25c0-4.56-2.93-6.8-8.26-6.8H50v14.22h5.25c4.6 0 8.38-2.55 8.38-7.42z" transform="translate(-.97 -1.64)" fill="#fff"/></svg>