<?xml version="1.0" encoding="utf-8"?>
<!-- Generator: Adobe Illustrator 26.5.0, SVG Export Plug-In . SVG Version: 6.00 Build 0)  -->
<svg version="1.1" id="Layer_1" xmlns="http://www.w3.org/2000/svg" xmlns:xlink="http://www.w3.org/1999/xlink" x="0px" y="0px"
	 viewBox="0 0 172.58 251.95" style="enable-background:new 0 0 172.58 251.95;" xml:space="preserve">
<style type="text/css">
	.st0{fill:#0083CA;}
	.st1{fill:#FFFFFF;}
</style>
<g>
	<path class="st0" d="M81.29,247.82c-2.42-1.24-23.97-12.42-37.55-22.23c-11.75-8.51-21.16-17.24-27.99-25.95
		c-9.06-11.57-13.65-23.25-13.65-34.71V17.85l7.76-2.93C32.24,6.46,62.35,1,86.58,1c29.52,0,60.08,7.66,77.28,14.23l7.72,2.95
		v146.63c0,11.46-4.59,23.13-13.64,34.69c-6.78,8.65-16.19,17.38-27.96,25.94c-13.96,10.07-36.73,21.87-37.69,22.37l-5.49,2.84
		L81.29,247.82z"/>
	<path class="st1" d="M86.78,243.9l2.75-1.42c0.95-0.49,23.37-12.12,36.92-21.89c11.32-8.24,20.33-16.58,26.77-24.79
		c8.2-10.47,12.36-20.89,12.36-30.99V22.31l-3.86-1.47C145,14.45,115.29,7,86.58,7c-23.56,0-52.85,5.31-74.61,13.53L8.09,22v142.93
		c0,10.09,4.16,20.53,12.37,31.01c6.48,8.27,15.49,16.61,26.79,24.79c13.51,9.77,35.83,21.27,36.78,21.76L86.78,243.9z"/>
	<g>
		<path class="st0" d="M86.58,37.59c-25.49,0-53.69,6.04-72.49,13.15c0,22.99,0,114.19,0,114.19c0,8.72,3.74,17.91,11.09,27.31
			c6.14,7.83,14.75,15.78,25.58,23.63c13.3,9.61,36,21.28,36,21.28s22.83-11.81,36.14-21.41c10.82-7.87,19.43-15.81,25.57-23.65
			c7.36-9.4,11.09-18.56,11.09-27.28c0,0,0-90.39,0-113.78C141,43.94,112.55,37.59,86.58,37.59z"/>
	</g>
	<g>
		<rect x="52" y="159.96" class="st1" width="69.91" height="6.97"/>
	</g>
	<g>
		<g>
			<path class="st0" d="M15.78,27.96c-0.73,0.26-1.1,0.39-1.83,0.65c0-1.03,0-1.54,0-2.57c2.63-0.95,3.95-1.4,6.6-2.26
				c2.44-0.79,3.73-1.07,4.84-0.67c0.92,0.33,1.81,1.18,1.81,3.02c0,2.85-2.28,4.65-3.54,5.04c0,0.02,0,0.03,0,0.05
				c2.4-0.74,4.58,0.13,4.58,3.01c0,2.32-1.75,5.31-6.51,6.82c-3.07,0.97-4.6,1.49-7.64,2.58c0-1.03,0-1.54,0-2.57
				c0.67-0.24,1.01-0.36,1.69-0.6C15.78,35.46,15.78,32.96,15.78,27.96z M19.36,31.38c0.67-0.22,1-0.33,1.67-0.55
				c1.48-0.48,2.69-1.68,2.69-3.26c0-1.49-0.94-1.93-2.64-1.39c-0.69,0.22-1.03,0.33-1.72,0.56C19.36,28.59,19.36,29.52,19.36,31.38
				z M19.36,39.24c0.78-0.26,1.17-0.38,1.95-0.63c2.1-0.67,3.01-2.1,3.01-3.51c0-1.36-1.04-2.11-2.86-1.53
				c-0.84,0.27-1.26,0.4-2.09,0.68C19.36,36.24,19.36,37.24,19.36,39.24z"/>
			<path class="st0" d="M44.62,29.59c1.21-0.24,1.81-0.36,3.03-0.58c-0.08,2.23-0.12,3.35-0.2,5.58c-5.08,0.95-7.61,1.5-12.64,2.75
				c0-1.03,0-1.54,0-2.57c0.63-0.16,0.95-0.23,1.58-0.39c0-5,0-7.5,0-12.5c-0.75,0.18-1.13,0.27-1.88,0.46c0-1.03,0-1.54,0-2.57
				c5.12-1.28,7.69-1.85,12.87-2.81c0.06,2.06,0.09,3.1,0.15,5.16c-1.21,0.23-1.82,0.34-3.03,0.58c-0.06-1.04-0.09-1.55-0.15-2.59
				c-1.72,0.35-2.58,0.53-4.3,0.91c0,1.85,0,2.78,0,4.64c1.77-0.39,2.65-0.58,4.43-0.94c0,1.09,0,1.63,0,2.72
				c-1.77,0.36-2.66,0.54-4.43,0.94c0,2.06,0,3.08,0,5.14c1.75-0.39,2.62-0.57,4.38-0.93C44.5,31.4,44.54,30.8,44.62,29.59z"/>
			<path class="st0" d="M55.02,30.79c0.66-0.1,0.99-0.15,1.65-0.24c0-5,0-7.5,0-12.5c-0.9,0.13-1.35,0.2-2.26,0.33
				c0-1.03,0-1.54,0-2.57c2.06-0.32,3.09-0.46,5.15-0.73c3,3.35,4.5,5.05,7.51,8.51c0.79,0.91,1.27,1.57,1.5,2.23
				c0.02,0,0.03,0,0.05,0c0-3.66,0-5.49,0-9.15c-0.65,0.06-0.98,0.09-1.63,0.15c0-1.03,0-1.54,0-2.57c2.58-0.24,3.87-0.34,6.46-0.51
				c0,1.03,0,1.54,0,2.57c-0.7,0.04-1.06,0.07-1.76,0.12c0,6.03,0,9.04,0,15.07c-1.1,0.08-1.65,0.12-2.76,0.22
				c-3.4-3.92-5.1-5.85-8.48-9.64c-0.43-0.48-0.79-1.01-0.84-1.25c-0.02,0-0.03,0-0.05,0.01c0,3.73,0,5.59,0,9.32
				c0.69-0.09,1.04-0.13,1.73-0.22c0,1.03,0,1.54,0,2.57c-2.51,0.3-3.77,0.47-6.27,0.85C55.02,32.34,55.02,31.82,55.02,30.79z"/>
			<path class="st0" d="M93.14,15.99c-1.29-0.04-1.93-0.05-3.22-0.07c0,5,0,7.48,0,12.48c0.64,0.01,1.16,0.01,1.81,0.01
				c0,1.03,0,1.58,0,2.61c-2.78-0.06-4.58-0.08-7.36-0.05c0-1.03,0-1.54,0-2.57c0.64-0.01,1.17,0,1.82,0c0-5,0-7.5,0-12.5
				c-1.29,0-1.93,0.01-3.22,0.03c-0.06,0.97-0.09,1.45-0.15,2.42c-1.23,0.02-1.84,0.04-3.07,0.08c0.06-2,0.09-3,0.15-4.99
				c6.53-0.21,9.79-0.19,16.32,0.1c0.06,2,0.09,3,0.15,5c-1.23-0.05-1.84-0.08-3.07-0.11C93.23,17.44,93.2,16.96,93.14,15.99z"/>
			<path class="st0" d="M112.98,26.84c1.23,0.15,1.85,0.23,3.07,0.4c-0.1,2.27-0.15,3.41-0.25,5.68c-5.08-0.69-7.63-0.96-12.73-1.35
				c0-1.03,0-1.54,0-2.57c0.64,0.05,0.96,0.07,1.61,0.13c0-5,0-7.5,0-12.5c-0.64-0.05-0.96-0.08-1.61-0.13c0-1.03,0-1.54,0-2.57
				c2.78,0.21,4.16,0.34,6.93,0.64c0,1.03,0,1.54,0,2.57c-0.64-0.07-0.96-0.1-1.6-0.17c0,5,0,7.5,0,12.5
				c1.75,0.18,2.63,0.27,4.38,0.49C112.86,28.72,112.9,28.09,112.98,26.84z"/>
			<path class="st0" d="M132.64,30.37c1.21,0.26,1.81,0.4,3.01,0.68c-0.08,2.2-0.12,3.3-0.2,5.5c-5.05-1.17-7.58-1.67-12.67-2.53
				c0-1.03,0-1.54,0-2.57c0.64,0.11,0.96,0.16,1.59,0.28c0-5,0-7.5,0-12.5c-0.76-0.13-1.14-0.2-1.9-0.33c0-1.03,0-1.54,0-2.57
				c5.18,0.87,7.77,1.38,12.9,2.57c0.06,2.09,0.09,3.13,0.15,5.22c-1.2-0.28-1.81-0.41-3.01-0.68c-0.06-1.06-0.09-1.59-0.15-2.65
				c-1.72-0.37-2.58-0.55-4.31-0.88c0,1.85,0,2.78,0,4.64c1.78,0.35,2.66,0.53,4.43,0.91c0,1.09,0,1.63,0,2.72
				c-1.77-0.38-2.66-0.57-4.43-0.91c0,2.06,0,3.08,0,5.14c1.76,0.34,2.63,0.52,4.38,0.9C132.52,32.13,132.56,31.54,132.64,30.37z"/>
			<path class="st0" d="M153.41,23.9c2.5,0.82,3.75,1.24,6.23,2.14c0,1.03,0,1.54,0,2.57c-0.54-0.19-0.81-0.29-1.34-0.48
				c-2.27,2.41-3.41,3.64-5.7,6.12c0,1.78,0,2.68,0,4.46c0.62,0.2,0.93,0.3,1.55,0.51c0,1.03,0,1.54,0,2.57
				c-2.67-0.88-4.19-1.35-6.88-2.15c0-1.08,0-1.49,0-2.57c0.61,0.18,1.11,0.33,1.72,0.52c0-1.77,0-2.66,0-4.43
				c-2.31-3.92-3.46-5.87-5.78-9.72c-0.55-0.15-0.82-0.22-1.37-0.37c0-1.03,0-1.54,0-2.57c2.77,0.73,4.57,1.22,7.33,2.05
				c0,1.03,0,1.49,0,2.52c-0.55-0.17-2.06-0.65-2.12-0.59c0.35,0.48,2.95,4.62,4.1,6.7c1.23-1.34,1.85-2,3.08-3.32
				c0.27-0.29,0.57-0.54,0.91-0.81c-0.69-0.23-1.03-0.34-1.72-0.57C153.41,25.45,153.41,24.93,153.41,23.9z"/>
		</g>
	</g>
	<g>
		<path class="st1" d="M65.15,202.78H53.2v-4.18h4.18v-9.72c-1.37,0.85-2.8,1.37-4.44,2.15l-1.25-2.69l7.14-5.28h3.33v15.53h2.99
			V202.78z"/>
		<path class="st1" d="M102.19,202.78H90.24v-4.18h4.18v-9.72c-1.37,0.85-2.8,1.37-4.44,2.15l-1.25-2.69l7.14-5.28h3.33v15.53h2.99
			V202.78z"/>
		<path class="st1" d="M122.07,186.07l-8.36,16.76c-0.68,1.39-1.5,2.75-2.41,4.05h-5.37c0.99-1.43,1.87-2.82,2.65-4.28l7.24-13.67
			c0.37-0.71,0.75-1.29,1.36-1.97h-11.86v-3.88h16.76V186.07z"/>
		<path class="st1" d="M76.69,182.53c-4.35,0-8.31,3.06-8.31,8.04c0,4.62,2.67,7.78,7.45,7.78c1.57,0,3.82-0.71,4.76-2.09l0.06,0.03
			c-0.66,4.87-3.8,7.02-8.88,7.02c-0.57,0-1.52-0.08-2.23-0.15l-0.28,3.42c1.08,0.25,2.42,0.33,3.61,0.33
			c7.38,0,13.04-4.49,13.04-13.4C85.92,187.12,82.81,182.53,76.69,182.53z M80.78,192.99c-0.83,0.87-2.02,1.35-3.41,1.35
			c-2.45,0-4.12-1.51-4.12-4.11c0-2.55,1.38-3.88,3.61-3.88c2.63,0,4.01,2.55,4.01,5.67C80.87,192.33,80.82,192.71,80.78,192.99z"/>
	</g>
	<path class="st1" d="M52,144.03v-12.55h8.36V71.74H51.4V59.19h32.51c12.01,0,18.32,0.48,23.78,4c4.49,2.91,8.86,8.24,8.86,17.09
		c0,13.7-11.16,19.15-17.35,19.15v0.24c11.77,0,22.45,7.15,22.45,20.97c0,11.15-8.49,23.39-31.91,23.39H52z M88.55,107.59H78.29
		v23.9h9.54c10.26,0,14.73-5.55,14.73-12.31C102.55,112.66,97.48,107.59,88.55,107.59z M99.56,82.31c0-7.09-4.57-10.57-12.86-10.57
		h-8.41v22.11h8.17C93.67,93.85,99.56,89.88,99.56,82.31z"/>
</g>
</svg>
